<svg id="图层_1" data-name="图层 1" xmlns="http://www.w3.org/2000/svg" viewBox="0 0 662.89 90.4"><title>Nova6</title><g id="文字"><path d="M650.89,84.38H553.28a12,12,0,0,1-12-12V17.43a12,12,0,0,1,12-12h97.61a12,12,0,0,1,12,12V72.34a12,12,0,0,1-12,12M553.28,8.59a8.86,8.86,0,0,0-8.84,8.84V72.34a8.86,8.86,0,0,0,8.84,8.84h97.61a8.85,8.85,0,0,0,8.83-8.84V17.43a8.85,8.85,0,0,0-8.83-8.84Z" style="fill:#231815"/><path d="M626.43,73.23a31.23,31.23,0,0,1-9.65-1.35c-6.65-2.22-15-7.59-16.84-20.61-2.27-15.75,3.61-27.71,16.13-32.83,14-5.73,28,3.33,28.63,3.72l-4.89,7.42,2.45-3.71-2.44,3.72c-.1-.07-10.74-6.86-20.39-2.91-6,2.47-12.83,8.53-10.69,23.32,1,6.94,4.55,11.34,10.85,13.44,4.86,1.61,12.4.72,15.36-.12a18.85,18.85,0,0,0,1.92-.65V51.14h-12.7v-8.9h21.59V67.93l-2.11,1.3a26.5,26.5,0,0,1-6.28,2.65,42.92,42.92,0,0,1-10.94,1.35" style="fill:#231815"/><path d="M589.52,25.43H568.74L568,35.89h1.23c14.68,0,23.29,7.3,23.29,18.66s-8.6,18.65-23.28,18.65a26.19,26.19,0,0,1-10.84-2.43l1.2-7.91a39.33,39.33,0,0,0,9.64,1.47c6.74,0,14.42-1.75,14.42-9.78s-7.68-9.79-14.42-9.79a52.12,52.12,0,0,0-10.8.83l.64-9.15h0l1.39-19.88h29Z" style="fill:#231815;fill-rule:evenodd"/><path d="M462.33,30.92a29,29,0,0,0-17.28,5.8c1-15.4,9.89-23.32,23.24-23.64a32.44,32.44,0,0,1,15.53,3.53l4.23-12A47.49,47.49,0,0,0,467.86,0c-23.55.12-36.4,16.06-36.59,44.94-.12,16.84,3.85,45.35,32.1,45.46,16.87.07,28.74-12.9,28.44-30.3S479.2,30.63,462.33,30.92m.05,45.94c-9.83-.06-14.9-7.75-14.85-16.39s5.22-16.17,15-16.11,15,7.53,14.94,16.3-5.22,16.26-15.13,16.2" style="fill:#231815"/><path d="M141.47,89.89c23.88,0,41-18.65,41-44.81S165.35.43,141.47.43c-23.59,0-40.85,18.48-40.85,44.65s17.26,44.81,40.85,44.81m0-15.91c16.55,0,25.09-13.4,25.09-28.9S158,16.34,141.47,16.34s-25,13.38-25,28.74S125,74,141.47,74" style="fill:#231815;fill-rule:evenodd"/><path d="M373,2H357.57V9.55A39.61,39.61,0,0,0,331.66.43c-23.59,0-40.85,18.48-40.85,44.65s17.26,44.81,40.85,44.81a39.47,39.47,0,0,0,25.91-9.19v7.65H373ZM331.66,74c16.55,0,25.09-13.4,25.09-28.9s-8.55-28.74-25.09-28.74S306.72,29.74,306.72,45.1,315.26,74,331.66,74" style="fill:#231815;fill-rule:evenodd"/><polygon points="260.55 1.98 277.45 1.98 245.72 88.34 227.56 88.34 195.83 1.98 212.72 1.98 236.64 67.08 260.55 1.98" style="fill:#231815;fill-rule:evenodd"/><path d="M78,88.34H62.14V59.9c0-4.59,0-9.18-.15-13.77a62.7,62.7,0,0,0-1.24-11.26C59.6,29.7,57.36,25,53.28,21.5a22.34,22.34,0,0,0-28.56,0c-4.08,3.49-6.33,8.2-7.48,13.37A63.63,63.63,0,0,0,16,46.13c-.18,4.59-.15,9.18-.15,13.77V88.34H0V59.9C0,47.66,0,36.49,2.62,27.36A36.07,36.07,0,0,1,16.11,7.57,39.43,39.43,0,0,1,39,.48,39.43,39.43,0,0,1,61.89,7.57,36.12,36.12,0,0,1,75.38,27.36C78,36.49,78,47.66,78,59.9Z" style="fill:#231815;fill-rule:evenodd"/></g></svg>